/* XPM */ 
static const unsigned char * bitcoin24_xpm[] = {
"24 24 467 2",
"  	c None",
"! 	c #3A3934",
"# 	c #312F2A",
"$ 	c #34332E",
"% 	c #33312C",
"& 	c #31302B",
"' 	c #35332F",
"( 	c #312E29",
") 	c #2A2924",
"* 	c #302E28",
"+ 	c #2E2B27",
", 	c #363430",
"- 	c #3A3933",
". 	c #393631",
"0 	c #3B3A35",
"1 	c #36342B",
"2 	c #373632",
"3 	c #393733",
"4 	c #2D2B27",
"5 	c #393832",
"6 	c #3D3B36",
"7 	c #383834",
"8 	c #363530",
"9 	c #2E2E2A",
": 	c #30302C",
"; 	c #3A3935",
"< 	c #2D2B26",
"= 	c #2C2925",
"> 	c #33322E",
"? 	c #383530",
"@ 	c #302F29",
"A 	c #312E28",
"B 	c #383630",
"C 	c #3A3834",
"D 	c #3F3D37",
"E 	c #3A3833",
"F 	c #443E2E",
"G 	c #917A48",
"H 	c #463E2D",
"I 	c #383731",
"J 	c #3D3B37",
"K 	c #3A3A36",
"L 	c #393935",
"M 	c #373733",
"N 	c #30302B",
"O 	c #3B3934",
"P 	c #37342F",
"Q 	c #2F2E29",
"R 	c #3D3C37",
"S 	c #373732",
"T 	c #383632",
"U 	c #36342F",
"V 	c #3E3D37",
"W 	c #3E3931",
"X 	c #34322D",
"Y 	c #4D4737",
"Z 	c #B49858",
"[ 	c #C1A15B",
"] 	c #B89A5A",
"^ 	c #4A4333",
"_ 	c #302F2A",
"` 	c #3C3B36",
"a 	c #3C3A36",
"b 	c #3A3A35",
"c 	c #33332E",
"d 	c #302D29",
"e 	c #3B3A36",
"f 	c #3B3B37",
"g 	c #393834",
"h 	c #383732",
"i 	c #393734",
"j 	c #373531",
"k 	c #383733",
"l 	c #71623F",
"m 	c #3E372B",
"n 	c #39362F",
"o 	c #7D7044",
"p 	c #DCBC6D",
"q 	c #746541",
"r 	c #403F38",
"s 	c #33302B",
"t 	c #423C2C",
"u 	c #3B3426",
"v 	c #373530",
"w 	c #302F2B",
"x 	c #322F2B",
"y 	c #2B2A26",
"z 	c #363531",
"{ 	c #3F3E3A",
"| 	c #43433F",
"} 	c #36332F",
"~ 	c #31302C",
" !	c #3C3B35",
"!!	c #534C35",
"#!	c #C3A863",
"$!	c #4E4631",
"%!	c #37352C",
"&!	c #524B31",
"'!	c #35322C",
"(!	c #3D392E",
")!	c #6D5C38",
"*!	c #C2A35D",
"+!	c #99804A",
",!	c #353027",
"-!	c #36322E",
".!	c #393833",
"0!	c #32312D",
"1!	c #38352F",
"2!	c #302E29",
"3!	c #413B2B",
"4!	c #6A5B3B",
"5!	c #816D42",
"6!	c #7E6C40",
"7!	c #594F34",
"8!	c #3A362E",
"9!	c #A39759",
":!	c #EFD67A",
";!	c #B79D5A",
"<!	c #98824A",
"=!	c #A48C4F",
">!	c #D4B668",
"?!	c #F6D277",
"@!	c #F6CF75",
"A!	c #C4A45E",
"B!	c #3E3728",
"C!	c #34312D",
"D!	c #32302C",
"E!	c #2C2B28",
"F!	c #3C3A35",
"G!	c #403F3B",
"H!	c #3B3528",
"I!	c #917C47",
"J!	c #E8CA74",
"K!	c #FCE481",
"L!	c #FDEA84",
"M!	c #FDEB85",
"N!	c #F8E282",
"O!	c #AD9858",
"P!	c #3B362A",
"Q!	c #A69F5E",
"R!	c #F9EF88",
"S!	c #FDEF87",
"T!	c #FDEE86",
"U!	c #FEEC85",
"V!	c #F6DE80",
"W!	c #A78F54",
"X!	c #494334",
"Y!	c #2F2C29",
"Z!	c #33312D",
"[!	c #2B2B27",
"]!	c #42413D",
"^!	c #33332D",
"_!	c #877243",
"`!	c #FCDE7E",
"a!	c #FEEE87",
"b!	c #FDF58B",
"c!	c #F8F18A",
"d!	c #F6EF88",
"e!	c #FEF78C",
"f!	c #FDF38A",
"g!	c #746942",
"h!	c #4A4742",
"i!	c #514C37",
"j!	c #7C774B",
"k!	c #857F4C",
"l!	c #7A7148",
"m!	c #463E2C",
"n!	c #403F39",
"o!	c #424140",
"p!	c #2E2D28",
"q!	c #35322F",
"r!	c #564A31",
"s!	c #F6E080",
"t!	c #D7CD76",
"u!	c #746C45",
"v!	c #3B3628",
"w!	c #383327",
"x!	c #6F6842",
"y!	c #F4EE88",
"z!	c #ACA460",
"{!	c #4E4D49",
"|!	c #41413B",
"}!	c #42423C",
"~!	c #36332C",
" #	c #736641",
"!#	c #B7A55F",
"##	c #BEA860",
"$#	c #857347",
"%#	c #36332A",
"&#	c #3D3C38",
"'#	c #32322E",
"(#	c #32302B",
")#	c #353430",
"*#	c #35312B",
"+#	c #685F3E",
",#	c #413D32",
"-#	c #3F3E39",
".#	c #3F3D38",
"0#	c #34332F",
"1#	c #BAB367",
"2#	c #B9B269",
"3#	c #51514C",
"4#	c #484843",
"5#	c #47453D",
"6#	c #ACA05D",
"7#	c #FDF48A",
"8#	c #FEF088",
"9#	c #EDD479",
":#	c #DEC370",
";#	c #BEA35E",
"<#	c #3A352B",
"=#	c #2F2E2A",
">#	c #373631",
"?#	c #3F3C37",
"@#	c #393732",
"A#	c #36352F",
"B#	c #403E38",
"C#	c #3D3D38",
"D#	c #38362F",
"E#	c #D1CB74",
"F#	c #979156",
"G#	c #52524D",
"H#	c #4A4A45",
"I#	c #9A9057",
"J#	c #FDF98C",
"K#	c #FEF68B",
"L#	c #C0AD64",
"M#	c #464032",
"N#	c #44443E",
"O#	c #8A7F4F",
"P#	c #907C4A",
"Q#	c #32312B",
"R#	c #2A2926",
"S#	c #2B2924",
"T#	c #2F2D29",
"U#	c #403E3A",
"V#	c #3D382D",
"W#	c #574F37",
"X#	c #494330",
"Y#	c #5F593D",
"Z#	c #AEA763",
"[#	c #E6E283",
"]#	c #484332",
"^#	c #4D4D48",
"_#	c #5C573E",
"`#	c #F8F48B",
"a#	c #FDFA8C",
"b#	c #E5D67B",
"c#	c #443F30",
"d#	c #434645",
"e#	c #AD9B5B",
"f#	c #383325",
"g#	c #2D2D2A",
"h#	c #2C2821",
"i#	c #2E2D29",
"j#	c #3D3829",
"k#	c #F5EB88",
"l#	c #FDF78E",
"m#	c #FEFB8E",
"n#	c #DAD77B",
"o#	c #524D37",
"p#	c #37342E",
"q#	c #413E34",
"r#	c #C3BC6E",
"s#	c #FEFB8D",
"t#	c #FDF78C",
"u#	c #7A6D41",
"v#	c #3B3C38",
"w#	c #32332F",
"x#	c #807444",
"y#	c #55492D",
"z#	c #292724",
"{#	c #33322D",
"|#	c #393532",
"}#	c #302C28",
"~#	c #C0B668",
" $	c #DDD87C",
"!$	c #797449",
"#$	c #66613F",
"$$	c #B6B167",
"%$	c #FDFC8F",
"&$	c #FEF98E",
"'$	c #B6A862",
"($	c #35332C",
")$	c #353530",
"*$	c #363632",
"+$	c #736A40",
",$	c #685834",
"-$	c #292622",
".$	c #4D4635",
"0$	c #39362C",
"1$	c #3F3F3A",
"2$	c #43443F",
"3$	c #2B2925",
"4$	c #6C633D",
"5$	c #CFC36F",
"6$	c #D3C972",
"7$	c #F3EE89",
"8$	c #FEFC8F",
"9$	c #FDFB90",
":$	c #C7C16E",
";$	c #B5AE64",
"<$	c #7F7749",
"=$	c #323026",
">$	c #393936",
"?$	c #2F2F2A",
"@$	c #887D49",
"A$	c #6D5B35",
"B$	c #23221D",
"C$	c #4A422B",
"D$	c #575038",
"E$	c #40403B",
"F$	c #2B2823",
"G$	c #2D2A23",
"H$	c #3D3A2A",
"I$	c #BAB366",
"J$	c #FDFA8E",
"K$	c #555033",
"L$	c #3A3831",
"M$	c #32322D",
"N$	c #3A3B36",
"O$	c #343228",
"P$	c #C9B367",
"Q$	c #20201C",
"R$	c #342D20",
"S$	c #8B7C4B",
"T$	c #383631",
"U$	c #2B2A25",
"V$	c #363630",
"W$	c #504A32",
"X$	c #FDF88E",
"Y$	c #9A9357",
"Z$	c #7A7447",
"[$	c #302D27",
"]$	c #35332D",
"^$	c #35342F",
"_$	c #8D834E",
"`$	c #D8B86A",
"a$	c #55472B",
"b$	c #252420",
"c$	c #29251F",
"d$	c #A99457",
"e$	c #46422E",
"f$	c #3B3A37",
"g$	c #312F2B",
"h$	c #32322C",
"i$	c #2E2C27",
"j$	c #262521",
"k$	c #3B3524",
"l$	c #FCF68D",
"m$	c #B4AC63",
"n$	c #3C3C37",
"o$	c #ACA461",
"p$	c #746B3F",
"q$	c #302E24",
"r$	c #2F2C26",
"s$	c #393528",
"t$	c #928850",
"u$	c #F4D87B",
"v$	c #BD9F5B",
"w$	c #393120",
"x$	c #B6A560",
"y$	c #38382E",
"z$	c #35322D",
"{$	c #36342E",
"|$	c #262520",
"}$	c #756B41",
"~$	c #FEF48A",
" %	c #AA9F5B",
"!%	c #857B4B",
"#%	c #FCF08A",
"$%	c #DACC75",
"%%	c #C8B96A",
"&%	c #EADA7E",
"'%	c #FCE17F",
"(%	c #E7C16D",
")%	c #937B46",
"*%	c #24211A",
"+%	c #252421",
",%	c #2D2C27",
"-%	c #302B1F",
".%	c #C1A45E",
"0%	c #B7A761",
"1%	c #413C2B",
"2%	c #2C2A24",
"3%	c #4E472C",
"4%	c #E6D87D",
"5%	c #FEE984",
"6%	c #807144",
"7%	c #454030",
"8%	c #EAD078",
"9%	c #FEE783",
":%	c #FEE582",
";%	c #FEDE7D",
"<%	c #F4CD74",
"=%	c #C2A25D",
">%	c #453B24",
"?%	c #282723",
"@%	c #282824",
"A%	c #514429",
"B%	c #D5B467",
"C%	c #EFD67B",
"D%	c #B8AA62",
"E%	c #998F53",
"F%	c #9C9255",
"G%	c #C1B367",
"H%	c #F9E584",
"I%	c #FDDF7E",
"J%	c #E1C06E",
"K%	c #403A2B",
"L%	c #32332D",
"M%	c #554A30",
"N%	c #BDA05B",
"O%	c #E1BF6B",
"P%	c #DBB868",
"Q%	c #A68B4F",
"R%	c #473D27",
"S%	c #282622",
"T%	c #2C2C28",
"U%	c #22211D",
"V%	c #2F2D28",
"W%	c #2A2822",
"X%	c #584A2C",
"Y%	c #C4A35D",
"Z%	c #E7C36E",
"[%	c #F1CF73",
"]%	c #F3D275",
"^%	c #F2CE74",
"_%	c #EFC871",
"`%	c #D5B367",
"a%	c #5C4D2F",
"b%	c #34342E",
"c%	c #2E2A22",
"d%	c #40392A",
"e%	c #3C3525",
"f%	c #34332B",
"g%	c #333430",
"h%	c #282823",
"i%	c #282722",
"j%	c #25231F",
"k%	c #32312C",
"l%	c #423927",
"m%	c #846F3F",
"n%	c #AE9253",
"o%	c #B89A58",
"p%	c #B39555",
"q%	c #927A45",
"r%	c #4D442C",
"s%	c #2A2721",
"t%	c #34322C",
"u%	c #272721",
"v%	c #34332D",
"w%	c #34342F",
"x%	c #373835",
"y%	c #272823",
"z%	c #32302A",
"{%	c #2B2822",
"|%	c #332D22",
"}%	c #373325",
"~%	c #363225",
" &	c #282720",
"!&	c #383833",
"#&	c #32322B",
"$&	c #2C2C25",
"%&	c #353531",
"&&	c #2A2A26",
"'&	c #25241F",
"! # $ % & ' ( ) * + , - . 0 1 2 3 4 5 6 7 8 9 : ",
"; # < = ! > ? @ A B C D E F G H ! 4 I J K L M N ",
"O > P Q R S T U 8 V W X Y Z [ ] ^ _ ` a E b 7 c ",
"d < e f g h i j k ? l m n o p q r s t u T v M w ",
"x y g 0 z { | } ~  !!!#!$!%!&!'!(!)!*!+!,!-!.!0!",
"1!z h 8 2!3!4!5!6!7!8!9!:!;!<!=!>!?!@!A!B!C!D!E!",
"F!G!; H!I!J!K!L!M!N!O!P!Q!R!S!T!U!V!W!X!e Y!Z![!",
"T ]!^!_!`!a!b!c!d!e!f!g!h!i!j!k!l!m!n!o!L p!h ~ ",
"q!; M r!s!t!u!v!w!x!y!z!{!|!}!~! #!###$#%#p!&#'#",
"(#)#8 *#+#,#-#.#0#` 1#2#3#4#5#6#7#8#9#:#;#<#6 =#",
"# >#U ?#@#v A#B#C#D#E#F#G#H#I#J#K#L#M#N#O#P#Q#R#",
"S#T#( U#a V#W#X#Y#Z#[#]#^#_#`#a#b#c#-#d#f e#f#g#",
"h#_ i#h e j#k#l#m#n#o#p#q#r#s#t#u#K ` v#w#x#y#z#",
"A P {#B |#}#~#a#s# $!$#$$$%$&$'$($)$O *$i#+$,$-$",
".$0$1$2$v 3$4$5$6$7$8$9$:$;$<$=$)#0!3 >$?$@$A$B$",
"C$D$b E$@#F$p#'!G$H$I$J$K$_ L$M$h 2 e N$O$P$,$Q$",
"R$S$>#0 h w T${#U$V$W$X$Y$z Z$[$]$^$s M _$`$a$b$",
"c$d$e$f$U g$h$i$j$h$k$l$m$n$o$p$q$r$s$t$u$v$w$j$",
"{#,$x$y$z$% {$_ |$_ }$~$ %! !%#%$%%%&%'%(%)%*%+%",
",%-%.%0%1%Q 2 _ 2%3%4%5%6%@ 7%8%9%:%;%<%=%>%?%@%",
"'!i$A%B%C%D%E%F%G%H%I%J%K%X L%M%N%O%P%Q%R%S%T%U%",
"? V%W%X%Y%Z%[%]%^%_%`%a%>#b%b w c%d%e%f%g%h%i%j%",
"p#& k%$ l%m%n%o%p%q%r%s%t%_ k%u%v%w%N x%g%y%j$j%",
"{$z%w%C # {%|%}%~% &!&2%% _ #&$&k%%&2 '#T%&&y '&"};