/* XPM */ 
static const unsigned char * bitcoin32_xpm[] = {
"32 32 753 2",
"  	c None",
"! 	c #3B3935",
"# 	c #353430",
"$ 	c #33302B",
"% 	c #363530",
"& 	c #34312D",
"' 	c #393833",
"( 	c #292823",
") 	c #3A3734",
"* 	c #2F2C27",
"+ 	c #302E29",
", 	c #2B2925",
"- 	c #2E2B25",
". 	c #2F2C28",
"0 	c #2A2722",
"1 	c #44423D",
"2 	c #383731",
"3 	c #34322D",
"4 	c #3F3C37",
"5 	c #363631",
"6 	c #373630",
"7 	c #373632",
"8 	c #393733",
"9 	c #36342F",
": 	c #2A2825",
"; 	c #3D3C37",
"< 	c #3C3B36",
"= 	c #373530",
"> 	c #3B3B37",
"? 	c #32312D",
"@ 	c #30302B",
"A 	c #30302C",
"B 	c #2E2E29",
"C 	c #34332E",
"D 	c #2E2D29",
"E 	c #2B2823",
"F 	c #3B3834",
"G 	c #292824",
"H 	c #37332E",
"I 	c #2F2E28",
"J 	c #2B2A25",
"K 	c #33302A",
"L 	c #2A2925",
"M 	c #3D3B36",
"N 	c #3E3B35",
"O 	c #3D3B35",
"P 	c #3D392C",
"Q 	c #6C5B39",
"R 	c #312F29",
"S 	c #393834",
"T 	c #282622",
"U 	c #34332D",
"V 	c #3C3B35",
"W 	c #403F3C",
"X 	c #373733",
"Y 	c #3A3A35",
"Z 	c #33322E",
"[ 	c #2D2C28",
"] 	c #3A3935",
"^ 	c #322F2B",
"_ 	c #3B3A35",
"` 	c #363630",
"a 	c #3A3833",
"b 	c #37342F",
"c 	c #302D28",
"d 	c #33322C",
"e 	c #42403A",
"f 	c #413F3A",
"g 	c #41403A",
"h 	c #383832",
"i 	c #393732",
"j 	c #413B2E",
"k 	c #937B48",
"l 	c #AF9253",
"m 	c #7F6B40",
"n 	c #353229",
"o 	c #2C2A26",
"p 	c #383732",
"q 	c #3C3A36",
"r 	c #3B3A36",
"s 	c #3A3A36",
"t 	c #3B3C37",
"u 	c #363632",
"v 	c #3B3833",
"w 	c #35332D",
"x 	c #393631",
"y 	c #34332F",
"z 	c #403E39",
"{ 	c #34342F",
"| 	c #383631",
"} 	c #35332F",
"~ 	c #373732",
" !	c #35342F",
"!!	c #393832",
"#!	c #403B33",
"$!	c #37322A",
"%!	c #35332E",
"&!	c #403B2F",
"'!	c #AF985C",
"(!	c #C5A45D",
")!	c #C3A45D",
"*!	c #857146",
"+!	c #3B3934",
",!	c #2C2B26",
"-!	c #383733",
".!	c #3E3B36",
"0!	c #393935",
"1!	c #2F2F2A",
"2!	c #302D29",
"3!	c #3C3B37",
"4!	c #3C3C38",
"5!	c #3D3C38",
"6!	c #373631",
"7!	c #393633",
"8!	c #363330",
"9!	c #3A3632",
":!	c #3C3528",
";!	c #7D6C44",
"<!	c #35312C",
"=!	c #3B3731",
">!	c #574F32",
"?!	c #CAB067",
"@!	c #DAB768",
"A!	c #9B844F",
"B!	c #454137",
"C!	c #3C3933",
"D!	c #322F2A",
"E!	c #38362D",
"F!	c #373122",
"G!	c #36332F",
"H!	c #36342E",
"I!	c #363633",
"J!	c #2C2C28",
"K!	c #2C2A25",
"L!	c #2F2E29",
"M!	c #2A2824",
"N!	c #42413D",
"O!	c #3A3936",
"P!	c #42423E",
"Q!	c #383532",
"R!	c #33312D",
"S!	c #33322F",
"T!	c #35322E",
"U!	c #3A372D",
"V!	c #B69E5F",
"W!	c #695835",
"X!	c #383730",
"Y!	c #3C3B34",
"Z!	c #4A442C",
"[!	c #A49358",
"]!	c #37342B",
"^!	c #41413B",
"_!	c #373731",
"`!	c #3C3424",
"a!	c #836E3F",
"b!	c #9E844D",
"c!	c #3C3320",
"d!	c #383531",
"e!	c #35342E",
"f!	c #32302C",
"g!	c #2A2926",
"h!	c #33332F",
"i!	c #3F3F3B",
"j!	c #434340",
"k!	c #2F2D28",
"l!	c #302F2A",
"m!	c #383934",
"n!	c #3E3D38",
"o!	c #6B603C",
"p!	c #EFD37B",
"q!	c #937D48",
"r!	c #493F29",
"s!	c #322D23",
"t!	c #2E2A20",
"u!	c #312D23",
"v!	c #423A29",
"w!	c #746139",
"x!	c #C1A35E",
"y!	c #E4BF6C",
"z!	c #DCB968",
"{!	c #8C7543",
"|!	c #302C24",
"}!	c #3B3732",
"~!	c #3A3934",
" #	c #322E26",
"!#	c #473D27",
"##	c #73623A",
"$#	c #947B48",
"%#	c #A2874D",
"&#	c #978049",
"'#	c #6D5D36",
"(#	c #3E382A",
")#	c #3B3830",
"*#	c #B0A560",
"+#	c #FCE683",
",#	c #ECD077",
"-#	c #CDAF65",
".#	c #BB9F5A",
"0#	c #C5A860",
"1#	c #E1C06E",
"2#	c #F6D479",
"3#	c #FCD87A",
"4#	c #F9D377",
"5#	c #E6C16E",
"6#	c #877242",
"7#	c #332F27",
"8#	c #34312C",
"9#	c #363430",
":#	c #2B2A27",
";#	c #3D3A35",
"<#	c #3C3C37",
"=#	c #312F28",
">#	c #4A3F26",
"?#	c #A68C51",
"@#	c #E9CA74",
"A#	c #FADF7F",
"B#	c #FDE681",
"C#	c #FEE983",
"D#	c #FDE884",
"E#	c #FAE181",
"F#	c #D4B96B",
"G#	c #574B2F",
"H#	c #3B372A",
"I#	c #B2AB63",
"J#	c #FCF38A",
"K#	c #FDEF87",
"L#	c #FEEC85",
"M#	c #FDEC85",
"N#	c #FDEB84",
"O#	c #FEE984",
"P#	c #FDE482",
"Q#	c #D9B96C",
"R#	c #6D5D39",
"S#	c #3D3932",
"T#	c #3A3835",
"U#	c #302D2A",
"V#	c #2C2C27",
"W#	c #292924",
"X#	c #3F3E3A",
"Y#	c #43423E",
"Z#	c #31302B",
"[#	c #5B4E2F",
"]#	c #DEBC6D",
"^#	c #FDE07F",
"_#	c #FEEC86",
"`#	c #FEF188",
"a#	c #FDF389",
"b#	c #FEF48A",
"c#	c #FEF589",
"d#	c #FEF289",
"e#	c #DBC774",
"f#	c #3A3429",
"g#	c #49443D",
"h#	c #6B633E",
"i#	c #AFA960",
"j#	c #D9D278",
"k#	c #E8DF81",
"l#	c #E0D57B",
"m#	c #BFAE64",
"n#	c #78683D",
"o#	c #474335",
"p#	c #43433F",
"q#	c #41413F",
"r#	c #2D2C27",
"s#	c #3C3B38",
"t#	c #403F3B",
"u#	c #615332",
"v#	c #F2D177",
"w#	c #FEEB84",
"x#	c #FDF38A",
"y#	c #FAF38C",
"z#	c #CEC671",
"{#	c #AFA75F",
"|#	c #B6AE63",
"}#	c #E8E282",
"~#	c #FEF88B",
" $	c #FDF58C",
"!$	c #6A603A",
"#$	c #4D4C49",
"$$	c #46433F",
"%$	c #3A3930",
"&$	c #2E2B20",
"'$	c #39362C",
"($	c #3B372F",
")$	c #352F23",
"*$	c #3C382A",
"+$	c #40403D",
",$	c #353531",
"-$	c #2B2A26",
".$	c #2F2E2A",
"0$	c #373431",
"1$	c #3B3529",
"2$	c #C8AE64",
"3$	c #FCF08B",
"4$	c #BAAF66",
"5$	c #595135",
"6$	c #39342C",
"7$	c #34302B",
"8$	c #403D2E",
"9$	c #C0B86A",
":$	c #FDF98D",
";$	c #988F55",
"<$	c #4C4B47",
"=$	c #4A4B46",
">$	c #444540",
"?$	c #3E3E38",
"@$	c #574B30",
"A$	c #B39F5D",
"B$	c #E6D179",
"C$	c #ECD37B",
"D$	c #C8AC65",
"E$	c #70603C",
"F$	c #2F2D25",
"G$	c #3D3B37",
"H$	c #393A36",
"I$	c #31302C",
"J$	c #37342E",
"K$	c #5E5235",
"L$	c #6D633D",
"M$	c #3F3C33",
"N$	c #383632",
"O$	c #3E3E3A",
"P$	c #665F3B",
"Q$	c #FEFA8F",
"R$	c #A49B5D",
"S$	c #52514D",
"T$	c #4C4C48",
"U$	c #494A45",
"V$	c #7A6D41",
"W$	c #F3E684",
"X$	c #FEF58B",
"Y$	c #FEF087",
"Z$	c #FDE683",
"[$	c #FCDF81",
"]$	c #F5D57A",
"^$	c #9A824B",
"_$	c #322F28",
"`$	c #3C3A35",
"a$	c #33312B",
"b$	c #3C3833",
"c$	c #383530",
"d$	c #3A3832",
"e$	c #3B3B35",
"f$	c #635B3B",
"g$	c #918B54",
"h$	c #54544E",
"i$	c #4E4E49",
"j$	c #454441",
"k$	c #766C44",
"l$	c #F9F28A",
"m$	c #ECD67A",
"n$	c #806D41",
"o$	c #514A35",
"p$	c #716942",
"q$	c #D9C070",
"r$	c #7C683C",
"s$	c #38352F",
"t$	c #363531",
"u$	c #23221E",
"v$	c #2D2A25",
"w$	c #403F3A",
"x$	c #393632",
"y$	c #3A3A33",
"z$	c #3F3E38",
"{$	c #46433E",
"|$	c #333128",
"}$	c #AFA761",
"~$	c #FAF78E",
" %	c #534C32",
"!%	c #4F4F4B",
"#%	c #4C4733",
"$%	c #EDE484",
"%%	c #FDFA8D",
"&%	c #FDF98B",
"'%	c #F3E283",
"(%	c #635634",
")%	c #444441",
"*%	c #474948",
"+%	c #5B563A",
",%	c #CFB66D",
"-%	c #3C3624",
".%	c #2E2F2B",
"0%	c #292926",
"1%	c #2A2723",
"2%	c #2D2B26",
"3%	c #42403C",
"4%	c #423B2C",
"5%	c #635736",
"6%	c #4B432C",
"7%	c #4E472F",
"8%	c #716A43",
"9%	c #BDB66B",
":%	c #FCF991",
";%	c #9B9457",
"<%	c #38362F",
"=%	c #4B4B44",
">%	c #484742",
"?%	c #ACA35F",
"@%	c #FDFB8E",
"A%	c #FDF58A",
"B%	c #99864F",
"C%	c #3F3D38",
"D%	c #3F413E",
"E%	c #444648",
"F%	c #A29456",
"G%	c #6F5E37",
"H%	c #2F2F2B",
"I%	c #2B2B27",
"J%	c #28241D",
"K%	c #302F2B",
"L%	c #47412C",
"M%	c #F8EC8A",
"N%	c #FDF58E",
"O%	c #FCF78F",
"P%	c #FEFB8D",
"Q%	c #FAF88F",
"R%	c #8D874F",
"S%	c #3C392F",
"T%	c #46443D",
"U%	c #5E5636",
"V%	c #F9F58D",
"W%	c #DFCF77",
"X%	c #423C2C",
"Y%	c #383834",
"Z%	c #424240",
"[%	c #2E2F2A",
"]%	c #686039",
"^%	c #9D874D",
"_%	c #23211B",
"`%	c #2C2B27",
"a%	c #302D27",
"b%	c #3A3731",
"c%	c #33312A",
"d%	c #2E2D28",
"e%	c #3E3A36",
"f%	c #393533",
"g%	c #2C2821",
"h%	c #CDC06E",
"i%	c #FDFA8B",
"j%	c #FEFA8E",
"k%	c #FEFC8D",
"l%	c #DAD479",
"m%	c #413B29",
"n%	c #3D3B33",
"o%	c #35322B",
"p%	c #4D482F",
"q%	c #DBD77D",
"r%	c #FEFC8E",
"s%	c #F9F089",
"t%	c #6D6139",
"u%	c #343430",
"v%	c #383833",
"w%	c #2A2A26",
"x%	c #474228",
"y%	c #B8A15F",
"z%	c #2A251B",
"{%	c #292622",
"|%	c #2F2C25",
"}%	c #39372F",
"~%	c #33302C",
" &	c #3D3C36",
"!&	c #8A7F4B",
"#&	c #FDF98C",
"$&	c #FEFA8D",
"%&	c #FDFB90",
"&&	c #EBE786",
"'&	c #B6B167",
"(&	c #BDB769",
")&	c #F5F28B",
"*&	c #F9F08D",
"+&	c #887A47",
",&	c #302F28",
"-&	c #393B36",
".&	c #4C472B",
"0&	c #C1A963",
"1&	c #2D261A",
"2&	c #272420",
"3&	c #3A362A",
"4&	c #5E553B",
"5&	c #42423D",
"6&	c #33312C",
"7&	c #272521",
"8&	c #403926",
"9&	c #BFB166",
":&	c #BCAF63",
";&	c #C7BC6C",
"<&	c #EBE484",
"=&	c #FEFB8F",
">&	c #FDFA90",
"?&	c #B8B165",
"@&	c #A8A05C",
"A&	c #8D834F",
"B&	c #4B452D",
"C&	c #2E2D27",
"D&	c #373834",
"E&	c #6F683D",
"F&	c #BDA35E",
"G&	c #2C2518",
"H&	c #25231F",
"I&	c #2D271C",
"J&	c #827648",
"K&	c #44443F",
"L&	c #282621",
"M&	c #39362F",
"N&	c #343029",
"O&	c #2D2922",
"P&	c #383526",
"Q&	c #8B824A",
"R&	c #FBF88D",
"S&	c #FCFA8E",
"T&	c #534D2F",
"U&	c #302F29",
"V&	c #353530",
"W&	c #30312C",
"X&	c #383A35",
"Y&	c #323028",
"Z&	c #BAAA63",
"[&	c #B19454",
"]&	c #2C261A",
"^&	c #22211D",
"_&	c #27221B",
"`&	c #353226",
"a&	c #393934",
"b&	c #2B2A24",
"c&	c #333027",
"d&	c #BBB266",
"e&	c #FDFA8E",
"f&	c #A09858",
"g&	c #303029",
"h&	c #5E583A",
"i&	c #302E28",
"j&	c #33322D",
"k&	c #383835",
"l&	c #625B35",
"m&	c #EBCF78",
"n&	c #A0854C",
"o&	c #25221C",
"p&	c #907C49",
"q&	c #685E38",
"r&	c #36352F",
"s&	c #34342E",
"t&	c #3A3931",
"u&	c #867D48",
"v&	c #D1CA73",
"w&	c #3D3A33",
"x&	c #36342C",
"y&	c #C3BA6F",
"z&	c #37362F",
"{&	c #312F2A",
"|&	c #312D27",
"}&	c #4C472F",
"~&	c #E5D47A",
" '	c #D8B668",
"!'	c #867142",
"#'	c #26221B",
"$'	c #24231F",
"%'	c #2D2A26",
"&'	c #574A2B",
"''	c #C3AE67",
"('	c #383528",
")'	c #3A3937",
"*'	c #33332D",
"+'	c #2B2924",
",'	c #867C46",
"-'	c #FDF88D",
".'	c #E1D97D",
"0'	c #3B3930",
"1'	c #35332C",
"2'	c #D3CA75",
"3'	c #A29555",
"4'	c #363021",
"5'	c #2F2B26",
"6'	c #353023",
"7'	c #6E663D",
"8'	c #E7D87D",
"9'	c #F2D075",
":'	c #C8A85F",
";'	c #60502E",
"<'	c #252420",
"='	c #302C1E",
">'	c #C2A65F",
"?'	c #91874E",
"@'	c #383831",
"A'	c #3A3733",
"B'	c #23211D",
"C'	c #BEB267",
"D'	c #FEF58A",
"E'	c #DACD76",
"F'	c #353329",
"G'	c #3A3834",
"H'	c #AB9F5B",
"I'	c #FDF38B",
"J'	c #E7D97E",
"K'	c #BAAC62",
"L'	c #B7A961",
"M'	c #DBCD77",
"N'	c #FCEC87",
"O'	c #FADA7A",
"P'	c #AF9353",
"Q'	c #3A311F",
"R'	c #262522",
"S'	c #23221F",
"T'	c #786539",
"U'	c #E7CC76",
"V'	c #7E7544",
"W'	c #312E26",
"X'	c #2E2E2A",
"Y'	c #2C2B24",
"Z'	c #2A2924",
"['	c #292922",
"]'	c #675D37",
"^'	c #FAEF8A",
"_'	c #FEEE87",
"`'	c #B9A65F",
"a'	c #6A5E3B",
"b'	c #FCE785",
"c'	c #FDED87",
"d'	c #FEED87",
"e'	c #FEEB85",
"f'	c #FEE681",
"g'	c #FDDB7B",
"h'	c #F3CB73",
"i'	c #D2AF64",
"j'	c #77653A",
"k'	c #231F18",
"l'	c #272723",
"m'	c #242520",
"n'	c #2D2B27",
"o'	c #372F1F",
"p'	c #B59858",
"q'	c #F1D57C",
"r'	c #B0A45E",
"s'	c #524B30",
"t'	c #2E2A22",
"u'	c #36352E",
"v'	c #302C25",
"w'	c #373221",
"x'	c #827645",
"y'	c #F3E485",
"z'	c #FEE884",
"{'	c #FCE07F",
"|'	c #7B6A3F",
"}'	c #38372E",
"~'	c #AF9658",
" (	c #F9D97C",
"!(	c #FEE07E",
"#(	c #FEDF7D",
"$(	c #FDD979",
"%(	c #F5CD75",
"&(	c #D9B567",
"'(	c #8F7744",
"((	c #30291B",
")(	c #282824",
"*(	c #262622",
"+(	c #26241F",
",(	c #4D4126",
"-(	c #C4A55E",
".(	c #EFCC74",
"0(	c #FAE384",
"1(	c #DDCF77",
"2(	c #BDB165",
"3(	c #B8AC62",
"4(	c #CBBE6D",
"5(	c #F2E284",
"6(	c #FDE985",
"7(	c #FDDF7D",
"8(	c #FBD87A",
"9(	c #CDAD64",
":(	c #3A3528",
";(	c #363125",
"<(	c #826D3F",
"=(	c #C5A55F",
">(	c #D9B768",
"?(	c #D5B265",
"@(	c #B49755",
"A(	c #6E5C35",
"B(	c #2D281D",
"C(	c #272621",
"D(	c #21211C",
"E(	c #282620",
"F(	c #544628",
"G(	c #BA9B58",
"H(	c #E1BC6B",
"I(	c #F0CB72",
"J(	c #F6D476",
"K(	c #F8D779",
"L(	c #F8D778",
"M(	c #F7D276",
"N(	c #F5CD73",
"O(	c #EFC872",
"P(	c #CDAB64",
"Q(	c #534429",
"R(	c #32322E",
"S(	c #2B2923",
"T(	c #362F22",
"U(	c #443B26",
"V(	c #443A25",
"W(	c #33332E",
"X(	c #32332F",
"Y(	c #2B2C28",
"Z(	c #22221D",
"[(	c #3A3732",
"](	c #312E29",
"^(	c #32302B",
"_(	c #473B25",
"`(	c #937B47",
"a(	c #C3A35D",
"b(	c #D3B063",
"c(	c #D8B566",
"d(	c #D9B667",
"e(	c #D7B465",
"f(	c #CCAA60",
"g(	c #A58B50",
"h(	c #514429",
"i(	c #2A2821",
"j(	c #3B3932",
"k(	c #32322C",
"l(	c #2F2D27",
"m(	c #31312D",
"n(	c #3B3B39",
"o(	c #33342F",
"p(	c #2A2A25",
"q(	c #24221E",
"r(	c #24231E",
"s(	c #3A3730",
"t(	c #2C271C",
"u(	c #736137",
"v(	c #867141",
"w(	c #887342",
"x(	c #5B4C2C",
"y(	c #383325",
"z(	c #2A2621",
"{(	c #292923",
"|(	c #353632",
"}(	c #3A3A39",
"~(	c #282A25",
" )	c #292724",
"!)	c #34322C",
"#)	c #353631",
"$)	c #373531",
"%)	c #2D2923",
"&)	c #292720",
"')	c #2C2B23",
"()	c #252520",
"))	c #31312C",
"*)	c #2D2B25",
"+)	c #32312B",
",)	c #32322A",
"-)	c #2C2C24",
".)	c #32312C",
"0)	c #373633",
"1)	c #2E2D2A",
"2)	c #262420",
"! # $ % & ' ( ) * + , - . 0 1 2 3 4 5 6 7 8 9 : ; < = > ? @ A B ",
"C # * D E F G # H I J K + L M N ' O P Q R S ! T U V W X Y Z > [ ",
"] ? ^ + L _ ` ] a b c d e f g h i j k l m n M o p _ q r s t u D ",
"v u w x d y z { | } ~  !!!#!$!%!&!'!(!(!)!*!+!,!; -!.!F ] 0!Y 1!",
"^ 2!+ 3!4!# 5!6!7!8!] s 9!:!;!<!=!>!?!@!A!B!C!D!E!F!G!x H!a I!J!",
"K!L!M!N!3!S S O!P!Q!R!S!T!U!V!W!X!Y!Z![!]!^!_!`!a!b!c!d!H e!S f!",
"H + g!-!< h!4!i!j!9 k!l!m!n!o!p!q!r!s!t!u!v!w!x!y!z!{!|!b 8 6![ ",
"}! !S ~!-!M! #!###$#%#&#'#(#)#*#+#,#-#.#0#1#2#3#4#5#6#7#8#9#:#g!",
";#<#N!-!=#>#?#@#A#B#C#D#E#F#G#H#I#J#K#L#M#N#O#P#Q#R#S#T#U#G!V#W#",
"d!X#Y#Z#[#]#^#_#`#a#b#c#b#d#e#f#g#h#i#j#k#l#m#n#o#p#q#0!r#_!Z o ",
") s#t#1!u#v#w#x#y#z#{#|#}#~# $!$#$$$Y!%$&$'$($)$*$x +$,$-$a s .$",
"0$-!# I!1$2$3$4$5$6$7$w 8$9$:$;$<$=$>$?$3 @$A$B$C$D$E$F$,!G$H$I$",
"R!7 ?  !J$K$L$M$N!f N$ !O$P$Q$R$S$T$U$g V$W$X$Y$Z$[$]$^$_$`$~!I$",
"a$i # = b$H!z c$i d$8 S e$f$Q$g$h$i$j$k$l$~#X$m$n$o$p$q$r$s$t$u$",
"v$H!R!9#w$x$`$f!y$z${$t#|$}$~$ %S$!%#%$%%%&%'%(%n!)%*%+%,%-%.%0%",
"1%J 2%2!3%X#x 4%5%6%7%8%9%:%;%<%=%>%?%@%%%A%B%2 C%D%E%5 F%G%H%I%",
"J%+ [ K%y s#p L%M%N%O%P%Q%R%S%K T%U%V%P%%%W%X%Y _ Y%Z%[%]%^%_%`%",
"a%b%c%d%2 e%f%g%h%i%j%k%l%m%n%o%p%q%r%P%s%t% !u%a v%m!w%x%y%z%{%",
"|%}%~%r  &w & 2!!&#&%%$&%&&&'&(&)&k%@%*&+&,&# I$a h!-&w%.&0&1&2&",
"3&4&t$5&>$5!6&7&8&9&:&;&<&=&r%>&?&@&A&B&C&t$y y `$s D&1!E&F&G&H&",
"I&J&= <#K&< 3 L&a$M&N&O&P&Q&R&S&T&U&V&!!W&S p 7 < s X&Y&Z&[&]&^&",
"_&[!`&a&-!< 6!2%' p C&b&e!c&d&e&f&g&C&h&i&%!U u j&Y%k&l&m&n&z%u$",
"o&p&q&% Y M } V#U r&l!L s&t&u&:$v&w&x&y&&$z&d {&|&~!}&~& '!'#'$'",
"%'&'''(')'C a 2!U&K!C&$'*'+','-'.'0'1'2'3'4'F$5'6'7'8'9':';'H&<'",
"p ='>'?'@'d A'{&%!L!R B'l!c&C'D'E'F'G'H'I'J'K'L'M'N'O'y!P'Q'R'S'",
"1!_%T'U'V'W'h!X'7 L!Y'Z'[']'^'_'`'F$*'a'b'c'd'e'f'g'h'i'j'k'l'm'",
"C&n'o'p'q'r's't'u'H!v'w'x'y'z'{'|'2%h!}'~' (!(#($(%(&('(((L!)(*(",
"b%$ +(,(-(.(0(1(2(3(4(5(6(7(8(9(:(e!~ V#;(<(=(>(?(@(A(B(G C(`%D(",
"b%U&J E(F(G(H(I(J(K(L(M(N(O(P(Q(2 j&V&Y R(S(T(U(V(6'W(X(Y(+(( Z(",
"[(](. ^(( _(`(a(b(c(d(e(f(g(h(i(j(j&` k(J l(# m(.$h!n(o(p(q()(r(",
"s(3 .$6!~!A't(,(u(v(w(r$x(y(d z(c%J j&Z#{(U&V&m(K%|(}(H%~(H& )D(",
"3 !)R #)!!$)v$2%%)&)')Y'()))~ *)%!+ +),)-).){ S!0)j&1)w%B W#G 2)"};