/* XPM */ 
static const unsigned char * bitcoin20_xpm[] = {
"20 20 331 2",
"  	c None",
"! 	c #383732",
"# 	c #32302A",
"$ 	c #322F2B",
"% 	c #34322E",
"& 	c #33312D",
"' 	c #312E29",
"( 	c #2D2C27",
") 	c #2F2C27",
"* 	c #302E2A",
"+ 	c #3C3A35",
", 	c #3A3833",
"- 	c #383730",
". 	c #3B372F",
"0 	c #383733",
"1 	c #302D29",
"2 	c #363631",
"3 	c #33332E",
"4 	c #31302C",
"5 	c #393834",
"6 	c #312F2A",
"7 	c #2D2B27",
"8 	c #373631",
"9 	c #353430",
": 	c #383631",
"; 	c #302E29",
"< 	c #3A3832",
"= 	c #3C3B35",
"> 	c #3C3932",
"? 	c #7C6940",
"@ 	c #927A48",
"A 	c #3F3B30",
"B 	c #312F2B",
"C 	c #393833",
"D 	c #3C3B36",
"E 	c #3B3A36",
"F 	c #393935",
"G 	c #363430",
"H 	c #34322D",
"I 	c #393934",
"J 	c #373430",
"K 	c #4C4333",
"L 	c #38342B",
"M 	c #564E38",
"N 	c #C5A860",
"O 	c #C8A85F",
"P 	c #63583E",
"Q 	c #33312C",
"R 	c #393730",
"S 	c #393631",
"T 	c #393732",
"U 	c #31312C",
"V 	c #2E2C27",
"W 	c #2F2D29",
"X 	c #3E3C38",
"Y 	c #3A3935",
"Z 	c #41403C",
"[ 	c #33302D",
"] 	c #484333",
"^ 	c #9E8852",
"_ 	c #3C392F",
"` 	c #534D35",
"a 	c #655B3D",
"b 	c #3D3C37",
"c 	c #48402C",
"d 	c #9A814B",
"e 	c #564A2E",
"f 	c #36322E",
"g 	c #37342F",
"h 	c #34342F",
"i 	c #302F2B",
"j 	c #3E3A2D",
"k 	c #65583C",
"l 	c #74633D",
"m 	c #655939",
"n 	c #9C8F56",
"o 	c #D6BE6C",
"p 	c #95814C",
"q 	c #887545",
"r 	c #AD9455",
"s 	c #E9C771",
"t 	c #F1CB72",
"u 	c #98804A",
"v 	c #322E29",
"w 	c #373431",
"x 	c #2B2A27",
"y 	c #403F3B",
"z 	c #37342C",
"{ 	c #837042",
"| 	c #E6CA73",
"} 	c #FCE782",
"~ 	c #FEEC85",
" !	c #FDEB85",
"!!	c #D8C26F",
"#!	c #4A4330",
"$!	c #A0995C",
"%!	c #F3E985",
"&!	c #FDF088",
"'!	c #FEEE87",
"(!	c #E9D178",
")!	c #8D7A4C",
"*!	c #413E36",
"+!	c #2C2C27",
",!	c #393733",
"-!	c #3E3D39",
".!	c #3E392A",
"0!	c #EBCD75",
"1!	c #FEF088",
"2!	c #E3DB7D",
"3!	c #B6AF64",
"4!	c #C8C16D",
"5!	c #FCF58B",
"6!	c #9C9256",
"7!	c #494743",
"8!	c #434033",
"9!	c #555138",
":!	c #534D36",
";!	c #433A29",
"<!	c #4A4435",
"=!	c #3E3E3A",
">!	c #2F2E2A",
"?!	c #383632",
"@!	c #32322E",
"A!	c #34322F",
"B!	c #363531",
"C!	c #988851",
"D!	c #89814F",
"E!	c #413E34",
"F!	c #36342F",
"G!	c #3A3934",
"H!	c #9E9759",
"I!	c #C3BC6D",
"J!	c #50504C",
"K!	c #464742",
"L!	c #413E33",
"M!	c #AD9F5D",
"N!	c #F6E684",
"O!	c #FAE081",
"P!	c #BEA35F",
"Q!	c #3F392A",
"R!	c #353530",
"S!	c #33312B",
"T!	c #393632",
"U!	c #3B3A35",
"V!	c #898351",
"W!	c #B4B067",
"X!	c #52514C",
"Y!	c #47453F",
"Z!	c #C5BB6E",
"[!	c #FEF88B",
"]!	c #E5D478",
"^!	c #736643",
"_!	c #776F4C",
"`!	c #B09959",
"a!	c #2B2A26",
"b!	c #2D2B26",
"c!	c #3D3B37",
"d!	c #3C382F",
"e!	c #504934",
"f!	c #4B4634",
"g!	c #736D48",
"h!	c #E1DC7F",
"i!	c #635E3F",
"j!	c #4E4E49",
"k!	c #878151",
"l!	c #FDFA8D",
"m!	c #F9EF88",
"n!	c #5F553A",
"o!	c #3F3E3A",
"p!	c #464848",
"q!	c #746C46",
"r!	c #605435",
"s!	c #2D2D2A",
"t!	c #2E2A24",
"u!	c #2F2E29",
"v!	c #34332E",
"w!	c #3B3935",
"x!	c #3B372B",
"y!	c #F3E987",
"z!	c #FDF88E",
"{!	c #FAF88D",
"|!	c #69643F",
"}!	c #393630",
"~!	c #4D4A36",
" #	c #EAE684",
"!#	c #FEFA8D",
"##	c #A69958",
"$#	c #383833",
"%#	c #3A3A35",
"&#	c #3C3D39",
"'#	c #302E20",
"(#	c #8F7E4B",
")#	c #292724",
"*#	c #36322A",
"+#	c #36332E",
",#	c #383530",
"-#	c #B9B065",
".#	c #FDF98D",
"0#	c #FDFA8E",
"1#	c #C2BE6E",
"2#	c #9F9B5C",
"3#	c #E4E080",
"4#	c #FDFB8E",
"5#	c #C8BE6E",
"6#	c #3C382C",
"7#	c #34332F",
"8#	c #363733",
"9#	c #29271D",
":#	c #A18E54",
";#	c #26231E",
"<#	c #585036",
"=#	c #38362E",
">#	c #42433E",
"?#	c #2A2924",
"@#	c #4D4632",
"A#	c #716741",
"B#	c #7F7849",
"C#	c #D4CF76",
"D#	c #716A40",
"E#	c #555038",
"F#	c #31302A",
"G#	c #383935",
"H#	c #544F34",
"I#	c #A28B51",
"J#	c #211F1B",
"K#	c #51472E",
"L#	c #575138",
"M#	c #302F2A",
"N#	c #32312B",
"O#	c #423E2C",
"P#	c #F6F18A",
"Q#	c #7A7549",
"R#	c #37352C",
"S#	c #4E4B35",
"T#	c #373731",
"U#	c #B9A761",
"V#	c #897242",
"W#	c #23221D",
"X#	c #312B21",
"Y#	c #9A8851",
"Z#	c #2B2B26",
"[#	c #2F2D24",
"]#	c #E6DF7F",
"^#	c #A0995D",
"_#	c #3B392E",
"`#	c #BAB169",
"a#	c #383428",
"b#	c #3C382A",
"c#	c #AB9F5F",
"d#	c #E3C26E",
"e#	c #625331",
"f#	c #262521",
"g#	c #95804A",
"h#	c #766E44",
"i#	c #35342E",
"j#	c #302E28",
"k#	c #292823",
"l#	c #534D33",
"m#	c #FCF18A",
"n#	c #948951",
"o#	c #36352F",
"p#	c #D9CA74",
"q#	c #EBDD7F",
"r#	c #D1C26F",
"s#	c #F0DE7F",
"t#	c #F8D679",
"u#	c #C5A45D",
"v#	c #352D1F",
"w#	c #252521",
"x#	c #423A27",
"y#	c #D6B96B",
"z#	c #948851",
"{#	c #423D2C",
"|#	c #343229",
"}#	c #332F24",
"~#	c #5D5636",
" $	c #DCCD76",
"!$	c #FCE381",
"#$	c #625638",
"$$	c #736640",
"%$	c #F5D87B",
"&$	c #FDE07E",
"'$	c #FAD678",
"($	c #DBB768",
")$	c #655533",
"*$	c #2C2A26",
"+$	c #272723",
",$	c #37342E",
"-$	c #2B2924",
".$	c #5F5130",
"0$	c #D9B768",
"1$	c #F4D97D",
"2$	c #EBD579",
"3$	c #F3DC7E",
"4$	c #FBDE7E",
"5$	c #F6D278",
"6$	c #AF9355",
"7$	c #35332C",
"8$	c #30302A",
"9$	c #50462D",
":$	c #897343",
";$	c #836F40",
"<$	c #4C442F",
"=$	c #2B2B27",
">$	c #262520",
"?$	c #25241F",
"@$	c #2E2D28",
"A$	c #53472E",
"B$	c #A68B4F",
"C$	c #CBAA60",
"D$	c #D1AF63",
"E$	c #C6A65E",
"F$	c #8D7745",
"G$	c #342F23",
"H$	c #35342F",
"I$	c #353531",
"J$	c #383936",
"K$	c #2C2D28",
"L$	c #252420",
"M$	c #302F29",
"N$	c #35332F",
"O$	c #2D2921",
"P$	c #3E3626",
"Q$	c #453E2A",
"R$	c #383324",
"S$	c #32302B",
"T$	c #31302B",
"U$	c #2E2E27",
"V$	c #32322F",
"W$	c #2D2D29",
"X$	c #272622",
"! # $ % & ' ( ) * + , - . 0 1 , + 2 3 4 ",
"5 6 7 8 9 : ; < + = > ? @ A B C D E F 4 ",
"G H I C C J 0 C K L M N O P Q R S T 5 U ",
"V W X 5 Y Z [ G ] ^ _ ` a b c d e f ! % ",
"g h Y i j k l m A n o p q r s t u v w x ",
"+ y z { | } ~  !!!#!$!%!&!'!(!)!*!% & +!",
",!-!.!0!1!2!3!4!5!6!7!8!9!:!;!<!=!>!?!@!",
"A!B!: C!D!E!F!G!H!I!J!K!L!M!N!O!P!Q!G!R!",
"S!9 , < T!T b U!V!W!X!Y!Z![!]!^!_!`!z a!",
"b!W T c!d!e!f!g!h!i!j!k!l!m!n!o!p!q!r!s!",
"t!u!v!w!x!y!z!{!|!}!~! #!###$#%#&#'#(#)#",
"*#+#U!,#1 -#.#0#1#2#3#4#5#6#7#! 8#9#:#;#",
"<#=#>#b ?#@#A#B#C#4#D#E#F#2 B!E G#H#I#J#",
"K#L#5 w!M#C F#N#O#P#Q#R#S#F!9 v!T#U#V#W#",
"X#Y#! C B F#( Z#[#]#^#_#`#a#) b#c#d#e#f#",
"; g#h#i#Q H j#k#l#m#n#o#p#q#r#s#t#u#v#w#",
"V x#y#z#{#|#}#~# $!$#$h $$%$&$'$($)$*$+$",
",$-$.$0$1$2$3$4$5$6$7$2 8$9$:$;$<$=$>$?$",
"g W @$A$B$C$D$E$F$G$o#H$u!b!I$i J$K$L$f#",
"F!M$C N$O$P$Q$R$N#V S$T$U$u!I$R!V$W$X$f#"};