/* XPM */ 
static const unsigned char * bitcoin16_xpm[] = {
"16 16 232 2",
"  	c None",
"! 	c #363531",
"# 	c #32302B",
"$ 	c #35322E",
"% 	c #302F2B",
"& 	c #312F2A",
"' 	c #2E2C26",
"( 	c #2D2B26",
") 	c #3E3C36",
"* 	c #3A3833",
"+ 	c #454032",
", 	c #373530",
"- 	c #312F2B",
". 	c #3A3934",
"0 	c #3A3A35",
"1 	c #34332F",
"2 	c #32312D",
"3 	c #373632",
"4 	c #34312C",
"5 	c #33322D",
"6 	c #393833",
"7 	c #373531",
"8 	c #34332D",
"9 	c #3F3D36",
": 	c #393731",
"; 	c #5A513B",
"< 	c #B39555",
"= 	c #7F6D43",
"> 	c #34322D",
"? 	c #3C3A36",
"@ 	c #3A3A36",
"A 	c #33332F",
"B 	c #2F2D28",
"C 	c #363530",
"D 	c #3A3935",
"E 	c #3A3835",
"F 	c #363632",
"G 	c #39352D",
"H 	c #746541",
"I 	c #423E32",
"J 	c #A59055",
"K 	c #564E3B",
"L 	c #38352C",
"M 	c #645637",
"N 	c #39342C",
"O 	c #33322F",
"P 	c #36332E",
"Q 	c #35332F",
"R 	c #3D3A30",
"S 	c #60553C",
"T 	c #66593A",
"U 	c #484333",
"V 	c #918452",
"W 	c #B19C5B",
"X 	c #7A6A41",
"Y 	c #867447",
"Z 	c #CAAC62",
"[ 	c #E8C36E",
"] 	c #5D5034",
"^ 	c #373430",
"_ 	c #2E2D2A",
"` 	c #3B3B36",
"a 	c #6D5E3A",
"b 	c #E2C872",
"c 	c #FDEA84",
"d 	c #FEEF87",
"e 	c #F2E080",
"f 	c #6A5F3E",
"g 	c #98915A",
"h 	c #E1D579",
"i 	c #F1E381",
"j 	c #CDB96A",
"k 	c #746746",
"l 	c #3C3B37",
"m 	c #33312D",
"n 	c #2D2C28",
"o 	c #3A3734",
"p 	c #95824D",
"q 	c #ECDF80",
"r 	c #969057",
"s 	c #746E46",
"t 	c #BAB469",
"u 	c #BFB76A",
"v 	c #4A4945",
"w 	c #3E3E37",
"x 	c #3C382A",
"y 	c #82764A",
"z 	c #8B7B4F",
"{ 	c #454134",
"| 	c #353430",
"} 	c #35342F",
"~ 	c #413C31",
" !	c #494536",
"!!	c #3D3C37",
"#!	c #383732",
"$!	c #514D39",
"%!	c #CCC674",
"&!	c #50504B",
"'!	c #524E41",
"(!	c #D9CF77",
")!	c #F9EC86",
"*!	c #B29F5E",
"+!	c #B6A05E",
",!	c #484232",
"-!	c #31302C",
".!	c #2E2C27",
"0!	c #322F2B",
"1!	c #3F3D38",
"2!	c #3A3730",
"3!	c #4A4533",
"4!	c #514D3B",
"5!	c #A7A261",
"6!	c #888351",
"7!	c #4D4D47",
"8!	c #B9B269",
"9!	c #FDF88C",
":!	c #8A7D4E",
";!	c #40403C",
"<!	c #47473F",
"=!	c #877748",
">!	c #2C2C29",
"?!	c #312D27",
"@!	c #302E29",
"A!	c #39352C",
"B!	c #F0E784",
"C!	c #FEFA8E",
"D!	c #A8A360",
"E!	c #38352E",
"F!	c #736E48",
"G!	c #FDFA8D",
"H!	c #D1C672",
"I!	c #393730",
"J!	c #393934",
"K!	c #353531",
"L!	c #817343",
"M!	c #292620",
"N!	c #403B2E",
"O!	c #3A3834",
"P!	c #302D29",
"Q!	c #A19859",
"R!	c #E0D87A",
"S!	c #F4F08A",
"T!	c #DCD87B",
"U!	c #D4D076",
"V!	c #B3AD66",
"W!	c #474332",
"X!	c #34322F",
"Y!	c #383834",
"Z!	c #32332E",
"[!	c #8E7E4A",
"]!	c #29241C",
"^!	c #5F5536",
"_!	c #383730",
"`!	c #3D3C38",
"a!	c #2E2C25",
"b!	c #4B4731",
"c!	c #ECE784",
"d!	c #555136",
"e!	c #3F3C31",
"f!	c #33322E",
"g!	c #363631",
"h!	c #383833",
"i!	c #413F32",
"j!	c #BDA55F",
"k!	c #27241C",
"l!	c #4E442E",
"m!	c #665E3E",
"n!	c #393834",
"o!	c #2B2A25",
"p!	c #33322C",
"q!	c #C2BB6A",
"r!	c #8B8555",
"s!	c #807B4F",
"t!	c #4F4A31",
"u!	c #312E28",
"v!	c #433F2F",
"w!	c #C2B167",
"x!	c #A2884E",
"y!	c #25231E",
"z!	c #2F2D25",
"{!	c #AC9757",
"|!	c #464332",
"}!	c #33312C",
"~!	c #2B2924",
" #	c #3D392A",
"!#	c #EDE180",
"##	c #7D7549",
"$#	c #605A3E",
"%#	c #F7E885",
"&#	c #DBCB74",
"'#	c #F5DF7F",
"(#	c #E9C56F",
")#	c #615231",
"*#	c #252521",
"+#	c #32302A",
",#	c #584B2F",
"-#	c #D5BA6B",
".#	c #968A53",
"0#	c #787149",
"1#	c #89804E",
"2#	c #DCC873",
"3#	c #F0D378",
"4#	c #463F2F",
"5#	c #98844E",
"6#	c #E6C770",
"7#	c #DFBC6A",
"8#	c #816C3F",
"9#	c #2C2922",
":#	c #272622",
";#	c #35332D",
"<#	c #5F5132",
"=#	c #CAA960",
">#	c #E6C46E",
"?#	c #E8C56E",
"@#	c #D5B265",
"A#	c #665736",
"B#	c #363630",
"C#	c #2E2D27",
"D#	c #383429",
"E#	c #363328",
"F#	c #272722",
"G#	c #262521",
"H#	c #35332E",
"I#	c #393733",
"J#	c #352F23",
"K#	c #54482F",
"L#	c #574C31",
"M#	c #3A3527",
"N#	c #32312C",
"O#	c #34342F",
"P#	c #30302D",
"Q#	c #292924",
"! # $ % & ' ( ) * + , - . 0 1 2 ",
"3 4 5 6 7 8 9 : ; < = > . ? @ A ",
"B C D D E F G H I J K L M N , O ",
"P C Q R S T U V W X Y Z [ ] ^ _ ",
"? ` a b c d e f g h i j k l m n ",
"o F p q r s t u v w x y z { 5 | ",
"} } ~  !!!#!$!%!&!'!(!)!*!+!,!-!",
".!0!1!2!3!4!5!6!7!8!9!:!;!<!=!>!",
"?!@!* A!B!C!D!E!F!G!H!I!J!K!L!M!",
"N!O!!!P!Q!R!S!T!U!V!W!X!Y!Z![!]!",
"^!_!`!@!, a!b!c!d!e!f!g!h!i!j!k!",
"l!m!n!m # o!p!q!r!s!t!u!v!w!x!y!",
"z!{!|!5 }!~! #!###$#%#&#'#(#)#*#",
"+#,#-#.#0#1#2#3#4#8 5#6#7#8#9#:#",
";#( <#=#>#?#@#A#C B#C#D#E#K!F#G#",
"H#5 I#J#K#L#M#@!& N#C#A O#P#Q#G#"};